<?xml version="1.0" encoding="UTF-8"?>
<!DOCTYPE svg PUBLIC "-//W3C//DTD SVG 1.1//EN" "http://www.w3.org/Graphics/SVG/1.1/DTD/svg11.dtd" [
  <!ENTITY stroke_color "#666666">
  <!ENTITY fill_color "#FFFFFF">
]>
<svg version="1.1" xmlns="http://www.w3.org/2000/svg" xmlns:xlink="http://www.w3.org/1999/xlink" 
     width="55" height="55" viewBox="0 0 55 55">
  
  <!-- Main background circle -->
  <circle cx="27.5" cy="27.5" r="22.5" 
          fill="&fill_color;" 
          stroke="&stroke_color;" 
          stroke-width="3.5"/>
  
  <!-- Number 12 (moved left) -->
  <g id="num12" transform="translate(-2, 0)">
    <!-- 1 -->
    <path d="M 13 15 L 13 25" 
          stroke="&stroke_color;" 
          stroke-width="3.5" 
          stroke-linecap="round"
          fill="none"/>
    
    <!-- 2 -->
    <path d="M 17 15 Q 21 15 21 17.5 T 17 20 L 17 25 L 21 25" 
          stroke="&stroke_color;" 
          stroke-width="3.5" 
          stroke-linecap="round"
          stroke-linejoin="round"
          fill="none"/>
  </g>
  
  <!-- Number 8 (moved right) -->
  <g id="num8" transform="translate(2, 0)">
    <path d="M 34 17.5 Q 34 15 37 15 T 40 17.5 Q 40 20 37 20 Q 34 20 34 22.5 T 37 25 Q 40 25 40 22.5 Q 40 20 37 20" 
          stroke="&stroke_color;" 
          stroke-width="3.5" 
          stroke-linecap="round"
          stroke-linejoin="round"
          fill="none"/>
  </g>
  

  
  <!-- GCD indicator (arrow pointing down) -->
  <g id="gcd-arrow">
    <line x1="27.5" y1="27" x2="27.5" y2="35" 
          stroke="&stroke_color;" 
          stroke-width="3.5" 
          stroke-linecap="round"/>
    <polyline points="24,32 27.5,35 31,32" 
              stroke="&stroke_color;" 
              stroke-width="3.5" 
              stroke-linecap="round" 
              stroke-linejoin="round"
              fill="none"/>
  </g>

  
  <!-- Result area (number 4) -->
  <path d="M 25 40 L 25 43 L 30 43 M 30 40 L 30 46" 
        stroke="&stroke_color;" 
        stroke-width="3.5" 
        stroke-linecap="round"
        stroke-linejoin="round"
        fill="none"/>
  
</svg>
